<svg xmlns="http://www.w3.org/2000/svg" width="72" height="72" viewbox="0 0 72 72">
    <rect x="0" y="0" width="72" height="72" fill="rgb(240, 240, 240)" />
    <path d="M 0 72 L 0 49 L 4 48 L 4 46 L 6 46 L 6 42 L 7 42 L 7 28 L 8 24 L 11 24 L 13 26 L 13 46 L 14 46 L 14 50 L 17 50 L 17 32 L 18 32 L 18 31 L 20 28.5 L 22 31 L 22 32 L 23 32 L 23 44 L 24 44 L 24 48 L 27 48 L 27 36 L 26 35.5 L 29 24 L 29 23 L 30 22 L 30 18 L 32 17.5 L 32 22 L 33 23 L 33 24 L 36.5 35.5 L 35.5 36 L 35.5 44 L 36 44 L 36 46 L 39 46 L 39 28 L 40 26 L 40 24 L 41 20 L 44 19 L 47 21 L 47 49 L 51 49 L 51 38 L 52 38 L 52 32 L 53 31 L 53 30 L 55 28 L 55.5 25.5 L 56 28 L 58 30 L 58 31 L 59 32 L 59 42 L 61 42 L 62 46 L 63.5 46 L 64 48 L 66 48 L 66 44 L 69 44 L 69 46 L 72 47 L 72 72 L 0 72" stroke="rgb(25, 25, 25)" stroke-width="1.5" stroke-linecap="round" stroke-linejoin="round" fill="rgb(211, 77, 77)" />
</svg>